<?xml version="1.0" encoding="UTF-8"?>
<svg xmlns="http://www.w3.org/2000/svg" xmlns:xlink="http://www.w3.org/1999/xlink" width="800" height="1000" viewBox="0 0 800 1000">
<defs>
<g>
<g id="glyph-0-0">
<path d="M 23.40625 -21.421875 L 23.640625 -18.15625 L 14.734375 -2.703125 C 14.734375 -2.703125 14.628906 -2.523438 14.421875 -2.171875 C 14.222656 -1.828125 14.03125 -1.40625 13.84375 -0.90625 C 13.65625 -0.40625 13.5625 0.09375 13.5625 0.59375 L 13.265625 0.59375 L 12.09375 -2.015625 Z M 3.0625 -2.1875 L 3.0625 0 L -0.265625 0 L -0.265625 -0.296875 C -0.242188 -0.296875 -0.160156 -0.296875 -0.015625 -0.296875 C 0.128906 -0.296875 0.203125 -0.296875 0.203125 -0.296875 C 0.742188 -0.296875 1.222656 -0.460938 1.640625 -0.796875 C 2.066406 -1.128906 2.320312 -1.59375 2.40625 -2.1875 Z M 4.375 -1.703125 C 4.375 -1.691406 4.375 -1.675781 4.375 -1.65625 C 4.375 -1.632812 4.375 -1.601562 4.375 -1.5625 C 4.375 -1.238281 4.488281 -0.941406 4.71875 -0.671875 C 4.945312 -0.398438 5.222656 -0.265625 5.546875 -0.265625 L 6.03125 -0.265625 L 6.03125 0 L 4.171875 0 L 4.171875 -1.703125 Z M 4.890625 -21.421875 L 5.15625 -21.421875 L 6.203125 -18.421875 L 4.203125 0 L 2.125 0 Z M 5.15625 -21.421875 L 14.96875 -5.3125 L 13.265625 0.59375 L 4.375 -14.3125 Z M 23.671875 -21.421875 L 26.515625 0 L 21.6875 0 L 20.1875 -13.796875 L 23.40625 -21.421875 Z M 25.59375 -2.1875 L 26.21875 -2.1875 C 26.320312 -1.59375 26.582031 -1.128906 27 -0.796875 C 27.414062 -0.460938 27.882812 -0.296875 28.40625 -0.296875 C 28.40625 -0.296875 28.484375 -0.296875 28.640625 -0.296875 C 28.804688 -0.296875 28.890625 -0.296875 28.890625 -0.296875 L 28.890625 0 L 25.59375 0 Z M 21.515625 -1.703125 L 21.71875 -1.703125 L 21.71875 0 L 19.890625 0 L 19.890625 -0.265625 L 20.34375 -0.265625 C 20.675781 -0.265625 20.953125 -0.398438 21.171875 -0.671875 C 21.398438 -0.941406 21.515625 -1.238281 21.515625 -1.5625 C 21.515625 -1.601562 21.515625 -1.632812 21.515625 -1.65625 C 21.515625 -1.675781 21.515625 -1.691406 21.515625 -1.703125 Z M 21.515625 -1.703125 "/>
</g>
<g id="glyph-0-1">
<path d="M 6.953125 -21 L 20.546875 -0.03125 L 15.234375 -0.03125 L 1.703125 -21 Z M 5.25 -2.15625 C 5.070312 -1.875 5.015625 -1.585938 5.078125 -1.296875 C 5.148438 -1.015625 5.304688 -0.773438 5.546875 -0.578125 C 5.785156 -0.390625 6.035156 -0.296875 6.296875 -0.296875 C 6.296875 -0.296875 6.359375 -0.296875 6.484375 -0.296875 C 6.617188 -0.296875 6.6875 -0.296875 6.6875 -0.296875 L 6.6875 0 L -0.71875 0 L -0.71875 -0.296875 L -0.296875 -0.296875 C 0.335938 -0.296875 0.914062 -0.472656 1.4375 -0.828125 C 1.957031 -1.191406 2.390625 -1.601562 2.734375 -2.0625 Z M 8.9375 -10.859375 L 10.40625 -9.71875 L 3.78125 0 L 1.265625 0 Z M 13.859375 -2.15625 L 19.234375 -2.046875 C 19.546875 -1.578125 19.972656 -1.164062 20.515625 -0.8125 C 21.054688 -0.46875 21.640625 -0.296875 22.265625 -0.296875 L 22.6875 -0.296875 L 22.6875 0 L 12.453125 0 L 12.453125 -0.296875 C 12.453125 -0.296875 12.515625 -0.296875 12.640625 -0.296875 C 12.773438 -0.296875 12.84375 -0.296875 12.84375 -0.296875 C 13.238281 -0.296875 13.570312 -0.492188 13.84375 -0.890625 C 14.113281 -1.296875 14.117188 -1.71875 13.859375 -2.15625 Z M 9.75 -21 L 9.75 -20.703125 C 9.75 -20.703125 9.6875 -20.703125 9.5625 -20.703125 C 9.445312 -20.703125 9.390625 -20.703125 9.390625 -20.703125 C 9.128906 -20.703125 8.882812 -20.601562 8.65625 -20.40625 C 8.425781 -20.21875 8.273438 -19.976562 8.203125 -19.6875 C 8.128906 -19.40625 8.1875 -19.125 8.375 -18.84375 L 3.03125 -18.9375 C 2.707031 -19.394531 2.28125 -19.800781 1.75 -20.15625 C 1.21875 -20.519531 0.632812 -20.703125 0 -20.703125 L -0.421875 -20.703125 L -0.421875 -21 Z M 19.6875 -21 L 12.421875 -10.234375 L 11.1875 -11.703125 L 17.125 -21 Z M 21.71875 -21 L 21.71875 -20.703125 L 21.296875 -20.703125 C 20.679688 -20.703125 20.109375 -20.519531 19.578125 -20.15625 C 19.046875 -19.800781 18.609375 -19.394531 18.265625 -18.9375 L 15.75 -18.84375 C 15.925781 -19.125 15.976562 -19.40625 15.90625 -19.6875 C 15.84375 -19.976562 15.703125 -20.21875 15.484375 -20.40625 C 15.265625 -20.601562 15.015625 -20.703125 14.734375 -20.703125 C 14.734375 -20.703125 14.671875 -20.703125 14.546875 -20.703125 C 14.429688 -20.703125 14.375 -20.703125 14.375 -20.703125 L 14.34375 -21 Z M 21.71875 -21 "/>
</g>
<g id="glyph-0-2">
<path d="M 11.046875 0.59375 L 1.109375 -20.8125 L 6.484375 -20.8125 L 12.875 -5.1875 Z M 11.046875 0.59375 L 10.953125 -3.0625 L 18.5625 -20.90625 L 20.734375 -20.90625 L 12.78125 -3.328125 C 12.738281 -3.210938 12.640625 -2.988281 12.484375 -2.65625 C 12.335938 -2.320312 12.175781 -1.945312 12 -1.53125 C 11.820312 -1.113281 11.664062 -0.707031 11.53125 -0.3125 C 11.40625 0.0703125 11.332031 0.375 11.3125 0.59375 Z M 17.671875 -18.8125 C 17.929688 -19.40625 17.898438 -19.867188 17.578125 -20.203125 C 17.253906 -20.535156 16.90625 -20.703125 16.53125 -20.703125 L 16.265625 -20.703125 L 16.265625 -21 L 22.6875 -21 L 22.6875 -20.703125 C 22.6875 -20.703125 22.640625 -20.703125 22.546875 -20.703125 C 22.453125 -20.703125 22.40625 -20.703125 22.40625 -20.703125 C 21.96875 -20.703125 21.503906 -20.554688 21.015625 -20.265625 C 20.523438 -19.972656 20.117188 -19.488281 19.796875 -18.8125 Z M 7.3125 -18.8125 L 2.046875 -18.8125 C 1.722656 -19.488281 1.316406 -19.972656 0.828125 -20.265625 C 0.335938 -20.554688 -0.132812 -20.703125 -0.59375 -20.703125 C -0.59375 -20.703125 -0.632812 -20.703125 -0.71875 -20.703125 C -0.800781 -20.703125 -0.84375 -20.703125 -0.84375 -20.703125 L -0.84375 -21 L 8.703125 -21 L 8.703125 -20.703125 L 8.4375 -20.703125 C 8.050781 -20.703125 7.710938 -20.535156 7.421875 -20.203125 C 7.128906 -19.867188 7.09375 -19.40625 7.3125 -18.8125 Z M 7.3125 -18.8125 "/>
</g>
<g id="glyph-0-3">
<path d="M 8.0625 -21 L 8.0625 0 L 3.5625 0 L 3.5625 -21 Z M 3.65625 -2.1875 L 3.65625 0 L 1.265625 0 L 1.265625 -0.296875 C 1.265625 -0.296875 1.328125 -0.296875 1.453125 -0.296875 C 1.585938 -0.296875 1.65625 -0.296875 1.65625 -0.296875 C 2.175781 -0.296875 2.617188 -0.476562 2.984375 -0.84375 C 3.359375 -1.21875 3.550781 -1.664062 3.5625 -2.1875 Z M 3.65625 -18.8125 L 3.5625 -18.8125 C 3.550781 -19.332031 3.359375 -19.773438 2.984375 -20.140625 C 2.617188 -20.515625 2.175781 -20.703125 1.65625 -20.703125 C 1.65625 -20.703125 1.585938 -20.703125 1.453125 -20.703125 C 1.328125 -20.703125 1.265625 -20.703125 1.265625 -20.703125 L 1.265625 -21 L 3.65625 -21 Z M 7.984375 -2.1875 L 8.0625 -2.1875 C 8.082031 -1.664062 8.273438 -1.21875 8.640625 -0.84375 C 9.015625 -0.476562 9.460938 -0.296875 9.984375 -0.296875 C 9.984375 -0.296875 10.039062 -0.296875 10.15625 -0.296875 C 10.28125 -0.296875 10.351562 -0.296875 10.375 -0.296875 L 10.375 0 L 7.984375 0 Z M 7.984375 -18.8125 L 7.984375 -21 L 10.375 -21 L 10.375 -20.703125 C 10.351562 -20.703125 10.28125 -20.703125 10.15625 -20.703125 C 10.039062 -20.703125 9.984375 -20.703125 9.984375 -20.703125 C 9.460938 -20.703125 9.015625 -20.515625 8.640625 -20.140625 C 8.273438 -19.773438 8.082031 -19.332031 8.0625 -18.8125 Z M 7.984375 -18.8125 "/>
</g>
<g id="glyph-1-0">
<path d="M 4.9375 -97.0625 L 39.78125 -97.0625 L 46.0625 -58.3125 L 46.0625 0 L 11.390625 0 L 11.390625 -63.578125 Z M 79.5625 -99.953125 C 88.507812 -99.953125 96.097656 -98.082031 102.328125 -94.34375 C 108.566406 -90.601562 113.328125 -85.332031 116.609375 -78.53125 C 119.898438 -71.738281 121.546875 -63.695312 121.546875 -54.40625 L 121.546875 0 L 86.875 0 L 86.875 -49.296875 C 86.875 -56.554688 85.226562 -62.109375 81.9375 -65.953125 C 78.65625 -69.804688 73.894531 -71.734375 67.65625 -71.734375 C 63.238281 -71.734375 59.414062 -70.710938 56.1875 -68.671875 C 52.957031 -66.640625 50.460938 -63.753906 48.703125 -60.015625 C 46.941406 -56.273438 46.0625 -51.851562 46.0625 -46.75 L 35.359375 -52.359375 C 36.722656 -62.671875 39.5 -71.367188 43.6875 -78.453125 C 47.882812 -85.535156 53.070312 -90.890625 59.25 -94.515625 C 65.425781 -98.140625 72.195312 -99.953125 79.5625 -99.953125 Z M 154.875 -99.953125 C 163.820312 -99.953125 171.441406 -98.082031 177.734375 -94.34375 C 184.023438 -90.601562 188.8125 -85.332031 192.09375 -78.53125 C 195.382812 -71.738281 197.03125 -63.695312 197.03125 -54.40625 L 197.03125 0 L 162.34375 0 L 162.34375 -49.296875 C 162.34375 -56.554688 160.695312 -62.109375 157.40625 -65.953125 C 154.125 -69.804688 149.367188 -71.734375 143.140625 -71.734375 C 138.722656 -71.734375 134.894531 -70.710938 131.65625 -68.671875 C 128.425781 -66.640625 125.929688 -63.753906 124.171875 -60.015625 C 122.421875 -56.273438 121.546875 -51.851562 121.546875 -46.75 L 110.84375 -52.359375 C 112.195312 -62.671875 114.941406 -71.367188 119.078125 -78.453125 C 123.222656 -85.535156 128.410156 -90.890625 134.640625 -94.515625 C 140.867188 -98.140625 147.613281 -99.953125 154.875 -99.953125 Z M 154.875 -99.953125 "/>
</g>
<g id="glyph-1-1">
<path d="M 97.234375 0 L 92.8125 -35.015625 L 97.40625 -48.453125 L 92.8125 -61.875 L 97.234375 -97.0625 L 133.28125 -97.0625 L 127.15625 -48.625 L 133.28125 0 Z M 105.40625 -48.453125 C 103.8125 -38.253906 100.660156 -29.300781 95.953125 -21.59375 C 91.253906 -13.882812 85.304688 -7.90625 78.109375 -3.65625 C 70.910156 0.59375 62.722656 2.71875 53.546875 2.71875 C 44.023438 2.71875 35.664062 0.59375 28.46875 -3.65625 C 21.28125 -7.90625 15.644531 -13.910156 11.5625 -21.671875 C 7.476562 -29.429688 5.4375 -38.359375 5.4375 -48.453125 C 5.4375 -58.765625 7.476562 -67.773438 11.5625 -75.484375 C 15.644531 -83.191406 21.28125 -89.195312 28.46875 -93.5 C 35.664062 -97.800781 44.023438 -99.953125 53.546875 -99.953125 C 62.722656 -99.953125 70.910156 -97.828125 78.109375 -93.578125 C 85.304688 -89.328125 91.285156 -83.378906 96.046875 -75.734375 C 100.804688 -68.085938 103.925781 -58.992188 105.40625 -48.453125 Z M 40.625 -48.453125 C 40.625 -43.691406 41.613281 -39.441406 43.59375 -35.703125 C 45.582031 -31.960938 48.332031 -29.039062 51.84375 -26.9375 C 55.363281 -24.84375 59.390625 -23.796875 63.921875 -23.796875 C 68.679688 -23.796875 73.15625 -24.84375 77.34375 -26.9375 C 81.539062 -29.039062 85.222656 -31.960938 88.390625 -35.703125 C 91.566406 -39.441406 93.953125 -43.691406 95.546875 -48.453125 C 93.953125 -53.328125 91.566406 -57.632812 88.390625 -61.375 C 85.222656 -65.113281 81.539062 -68.054688 77.34375 -70.203125 C 73.15625 -72.359375 68.679688 -73.4375 63.921875 -73.4375 C 59.390625 -73.4375 55.363281 -72.359375 51.84375 -70.203125 C 48.332031 -68.054688 45.582031 -65.113281 43.59375 -61.375 C 41.613281 -57.632812 40.625 -53.328125 40.625 -48.453125 Z M 40.625 -48.453125 "/>
</g>
<g id="glyph-1-2">
<path d="M 4.9375 -97.0625 L 40.296875 -97.0625 L 46.0625 -62.390625 L 46.0625 0 L 11.390625 0 L 11.390625 -64.4375 Z M 91.625 -98.59375 L 91.625 -69.015625 C 88.226562 -69.703125 85.023438 -70.1875 82.015625 -70.46875 C 79.015625 -70.75 76.269531 -70.890625 73.78125 -70.890625 C 68.789062 -70.890625 64.195312 -69.894531 60 -67.90625 C 55.8125 -65.925781 52.441406 -62.671875 49.890625 -58.140625 C 47.335938 -53.609375 46.0625 -47.546875 46.0625 -39.953125 L 39.4375 -48.109375 C 40.34375 -55.140625 41.703125 -61.742188 43.515625 -67.921875 C 45.328125 -74.097656 47.789062 -79.59375 50.90625 -84.40625 C 54.03125 -89.21875 57.914062 -93.007812 62.5625 -95.78125 C 67.207031 -98.5625 72.875 -99.953125 79.5625 -99.953125 C 81.488281 -99.953125 83.46875 -99.835938 85.5 -99.609375 C 87.539062 -99.390625 89.582031 -99.050781 91.625 -98.59375 Z M 91.625 -98.59375 "/>
</g>
</g>
</defs>
<path fill="none" stroke-width="1.5" stroke-linecap="butt" stroke-linejoin="miter" stroke="rgb(54.509804%, 35.294118%, 23.529412%)" stroke-opacity="1" stroke-miterlimit="4" d="M 194 100 C 194 151.915365 151.915365 194 100 194 C 48.084635 194 6 151.915365 6 100 C 6 48.084635 48.084635 6 100 6 C 151.915365 6 194 48.084635 194 100 Z M 194 100 " transform="matrix(3, 0, 0, 3, 100, 50)"/>
<path fill="none" stroke-width="12" stroke-linecap="butt" stroke-linejoin="miter" stroke="rgb(54.509804%, 35.294118%, 23.529412%)" stroke-opacity="1" stroke-dasharray="4 18" stroke-miterlimit="4" d="M 184 100 C 184 146.391927 146.391927 184 100 184 C 53.608073 184 16 146.391927 16 100 C 16 53.608073 53.608073 16 100 16 C 146.391927 16 184 53.608073 184 100 Z M 184 100 " transform="matrix(3, 0, 0, 3, 100, 50)"/>
<path fill="none" stroke-width="2" stroke-linecap="butt" stroke-linejoin="miter" stroke="rgb(54.509804%, 35.294118%, 23.529412%)" stroke-opacity="1" stroke-miterlimit="4" d="M 166 100 C 166 136.450521 136.450521 166 100 166 C 63.549479 166 34 136.450521 34 100 C 34 63.549479 63.549479 34 100 34 C 136.450521 34 166 63.549479 166 100 Z M 166 100 " transform="matrix(3, 0, 0, 3, 100, 50)"/>
<path fill-rule="nonzero" fill="rgb(54.509804%, 35.294118%, 23.529412%)" fill-opacity="1" d="M 309.28125 426.199219 L 309.28125 249.800781 L 400 340.519531 L 400 388.398438 L 354.640625 343.039062 L 354.640625 426.199219 Z M 309.28125 426.199219 "/>
<path fill-rule="nonzero" fill="rgb(54.509804%, 35.294118%, 23.529412%)" fill-opacity="1" d="M 400 340.519531 L 490.71875 249.800781 L 490.71875 426.199219 L 445.359375 426.199219 L 445.359375 343.039062 L 400 388.398438 Z M 400 340.519531 "/>
<path fill-rule="nonzero" fill="rgb(54.509804%, 35.294118%, 23.529412%)" fill-opacity="1" d="M 354.640625 249.800781 L 445.359375 249.800781 L 400 295.160156 Z M 354.640625 249.800781 "/>
<g fill="rgb(54.509804%, 35.294118%, 23.529412%)" fill-opacity="1">
<use xlink:href="#glyph-0-0" x="303.566406" y="494"/>
</g>
<g fill="rgb(54.509804%, 35.294118%, 23.529412%)" fill-opacity="1">
<use xlink:href="#glyph-0-0" x="344.15625" y="494"/>
</g>
<g fill="rgb(54.509804%, 35.294118%, 23.529412%)" fill-opacity="1">
<use xlink:href="#glyph-0-1" x="384.746094" y="494"/>
</g>
<g fill="rgb(54.509804%, 35.294118%, 23.529412%)" fill-opacity="1">
<use xlink:href="#glyph-0-1" x="418.617188" y="494"/>
</g>
<g fill="rgb(54.509804%, 35.294118%, 23.529412%)" fill-opacity="1">
<use xlink:href="#glyph-0-2" x="452.488281" y="494"/>
</g>
<g fill="rgb(54.509804%, 35.294118%, 23.529412%)" fill-opacity="1">
<use xlink:href="#glyph-0-3" x="486.328125" y="494"/>
</g>
<g fill="rgb(54.509804%, 35.294118%, 23.529412%)" fill-opacity="1">
<use xlink:href="#glyph-1-0" x="111" y="900"/>
</g>
<g fill="rgb(54.509804%, 35.294118%, 23.529412%)" fill-opacity="1">
<use xlink:href="#glyph-1-1" x="316.359375" y="900"/>
</g>
<g fill="rgb(54.509804%, 35.294118%, 23.529412%)" fill-opacity="1">
<use xlink:href="#glyph-1-2" x="456.78125" y="900"/>
</g>
<g fill="rgb(54.509804%, 35.294118%, 23.529412%)" fill-opacity="1">
<use xlink:href="#glyph-1-1" x="550.789062" y="900"/>
</g>
</svg>
